 <svg
    version="1.0"
    xmlns="http://www.w3.org/2000/svg"
    width="62.000000pt"
    height="59.000000pt"
    viewBox="0 0 62.000000 59.000000"
    preserveAspectRatio="xMidYMid meet"> 
    <style>
        path {
            fill: black;
        }
        @media (prefers-color-scheme: dark) {
            path { fill: white; }
        }
    </style> 
    <g 
        transform="translate(0.000000,59.000000) scale(0.100000,-0.100000)"
        fill="#ffffff" stroke="none">
        <path d="M219 556 c-93 -33 -154 -94 -185 -188 -20 -61 -14 -126 16 -195 29 -65 71 -106 143 -138 51 -24 70 -27 126 -23 106 8 196 68 239 160 35 75 35 92 3 105 -22 8 -32 22 -46 62 -18 54 -53 88 -80 77 -24 -9 -65 15 -72 43 -3 13 -2 42 4 63 6 21 8 40 5 43 -10 10 -118 4 -153 -9z m105 -56 c-14 -66 37 -120 110 -120 34 0 36 -2 42 -41 4 -25 19 -55 36 -75 21 -24 27 -39 23 -57 -9 -36 -62 -96 -114 -128 -38 -25 -55 -29 -114 -29 -85 0 -121 16 -181 80 -47 51 -66 98 -66 169 0 116 114 229 232 231 36 0 37 -1 32 -30z"/>
        <path d="M196 411 c-33 -36 18 -83 52 -49 18 18 14 46 -7 58 -25 13 -25 13 -45 -9z"/>
        <path d="M256 315 c-9 -9 -16 -20 -16 -25 0 -15 32 -41 48 -38 24 5 39 35 26 56 -15 23 -38 26 -58 7z"/>
        <path d="M115 301 c-9 -31 5 -52 33 -49 33 4 50 31 33 52 -18 22 -58 20 -66 -3z"/>
        <path d="M384 216 c-10 -27 1 -51 26 -54 31 -5 53 23 39 49 -12 22 -57 25 -65 5z"/>
        <path d="M252 211 c-8 -4 -12 -21 -10 -37 2 -23 8 -29 27 -29 31 0 50 28 35 53 -13 20 -34 25 -52 13z"/> 
    </g>
</svg> 